<svg width="32" height="32" viewBox="0 0 32 32" fill="none" xmlns="http://www.w3.org/2000/svg">
    <path
        d="M22.667 2.66699H9.33366C5.65176 2.66699 2.66699 5.65176 2.66699 9.33366V22.667C2.66699 26.3489 5.65176 29.3337 9.33366 29.3337H22.667C26.3489 29.3337 29.3337 26.3489 29.3337 22.667V9.33366C29.3337 5.65176 26.3489 2.66699 22.667 2.66699Z"
        stroke="#000000" stroke-width="2" stroke-linecap="round" stroke-linejoin="round" />
    <path
        d="M21.3336 15.1604C21.4981 16.2701 21.3086 17.4034 20.7919 18.3991C20.2753 19.3948 19.4578 20.2023 18.4558 20.7066C17.4537 21.211 16.3182 21.3865 15.2106 21.2083C14.1031 21.0301 13.0799 20.5072 12.2867 19.7139C11.4935 18.9207 10.9706 17.8976 10.7924 16.79C10.6141 15.6825 10.7897 14.5469 11.294 13.5449C11.7984 12.5429 12.6058 11.7254 13.6016 11.2087C14.5973 10.6921 15.7306 10.5025 16.8403 10.6671C17.9722 10.8349 19.0201 11.3624 19.8292 12.1715C20.6383 12.9806 21.1657 14.0285 21.3336 15.1604Z"
        stroke="#000000" stroke-width="2" stroke-linecap="round" stroke-linejoin="round" />
    <path d="M23.333 8.66699H23.3459" stroke="#000000" stroke-width="2" stroke-linecap="round"
        stroke-linejoin="round" />
</svg>