<svg viewBox="50 50 750 70" xmlns="http://www.w3.org/2000/svg" data-name="Livello 1" id="Livello_1">
  <defs>
    <style>
      .cls-1 {
        fill: #1d1d1b;
        stroke-width: 0px;
      }
    </style>
  </defs>
  <path
    d="M66.06,55.2c3.01,0,5.46.67,7.35,2.02,1.9,1.35,3.11,3.27,3.64,5.77h3.2c-.56-3-2.11-5.36-4.63-7.06-2.53-1.7-5.76-2.55-9.69-2.55-3.17,0-5.91.6-8.19,1.81-2.29,1.21-4.04,2.96-5.27,5.25-1.22,2.29-1.83,5.01-1.83,8.15,0,4.8,1.39,8.53,4.17,11.16,2.78,2.64,6.71,3.96,11.8,3.96s9.66-1.32,13.06-3.96v-11.8h-13.86v1.68h10.41v9.77c-2.64,1.66-5.83,2.49-9.56,2.49-4.02,0-7.11-1.16-9.29-3.48-2.18-2.32-3.26-5.61-3.26-9.88s1.05-7.49,3.16-9.84c2.11-2.35,5.04-3.52,8.81-3.52Z"
    class="cls-1"></path>
  <rect height="29.49" width="3.46" y="53.81" x="95.97" class="cls-1"></rect>
  <path
    d="M139.01,55.16c-2.32-1.18-5.09-1.77-8.32-1.77s-6.01.59-8.34,1.77c-2.33,1.18-4.12,2.9-5.35,5.16-1.24,2.26-1.85,4.97-1.85,8.11s.61,5.95,1.83,8.24c1.22,2.29,3,4.04,5.33,5.25,2.33,1.21,5.13,1.81,8.38,1.81s6.01-.6,8.34-1.81c2.33-1.21,4.11-2.96,5.33-5.25,1.22-2.29,1.83-5.03,1.83-8.24s-.62-5.85-1.85-8.11c-1.24-2.26-3.01-3.98-5.33-5.16ZM139.58,78.37c-2.11,2.36-5.07,3.54-8.89,3.54s-6.82-1.18-8.93-3.54c-2.11-2.36-3.16-5.67-3.16-9.94s1.05-7.47,3.16-9.77c2.11-2.3,5.08-3.46,8.93-3.46s6.82,1.15,8.91,3.46c2.09,2.3,3.14,5.56,3.14,9.77s-1.05,7.58-3.16,9.94Z"
    class="cls-1"></path>
  <polygon points="171.09 79.51 159 53.81 155.08 53.81 169.62 83.72 171.14 83.72 186.43 53.81 184.15 53.81 171.09 79.51"
    class="cls-1"></polygon>
  <path
    d="M204.42,53.39l-15.34,29.91h2.27l3.92-7.75h17.61l3.62,7.75h3.88l-14.45-29.91h-1.52ZM196.2,73.74l8.22-16.3,7.63,16.3h-15.84Z"
    class="cls-1"></path>
  <polygon
    points="254.72 77.66 235.81 53.81 232.27 53.81 232.27 83.3 234.96 83.3 234.96 56.59 256.11 83.3 257.42 83.3 257.42 53.81 254.72 53.81 254.72 77.66"
    class="cls-1"></polygon>
  <polygon
    points="294.62 77.66 275.7 53.81 272.16 53.81 272.16 83.3 274.86 83.3 274.86 56.59 296.01 83.3 297.32 83.3 297.32 53.81 294.62 53.81 294.62 77.66"
    class="cls-1"></polygon>
  <path
    d="M324.57,53.39l-15.34,29.91h2.27l3.92-7.75h17.61l3.62,7.75h3.88l-14.45-29.91h-1.52ZM316.36,73.74l8.22-16.3,7.63,16.3h-15.84Z"
    class="cls-1"></path>
  <polygon
    points="385.54 78.75 373.65 53.81 369.4 53.81 369.4 83.3 371.55 83.3 371.55 56.93 384.23 83.3 385.54 83.3 397.84 57.35 397.84 83.3 401.29 83.3 401.29 53.81 397.33 53.81 385.54 78.75"
    class="cls-1"></polygon>
  <path
    d="M428.59,53.39l-15.34,29.91h2.27l3.92-7.75h17.61l3.62,7.75h3.88l-14.45-29.91h-1.52ZM420.38,73.74l8.22-16.3,7.63,16.3h-15.84Z"
    class="cls-1"></path>
  <path
    d="M479.91,80.96c-.53-.94-1.11-2.18-1.73-3.73-.7-1.83-1.45-3.27-2.25-4.32-.8-1.05-1.75-1.85-2.84-2.38,2.42-.51,4.26-1.44,5.54-2.8,1.28-1.36,1.92-3.14,1.92-5.33,0-2.84-1.07-4.98-3.2-6.42-2.14-1.45-5.17-2.17-9.1-2.17h-11.8v29.49h3.45v-12.3h8.34c.62,0,1.07-.01,1.35-.04,1.24.39,2.27,1.17,3.12,2.32.84,1.15,1.67,2.81,2.49,4.97.48,1.29.91,2.32,1.31,3.1.39.77.83,1.43,1.31,1.96h3.79v-.25c-.59-.45-1.15-1.14-1.68-2.09ZM468.32,69.19h-8.43v-13.57h8.43c2.81,0,4.97.57,6.49,1.71,1.52,1.14,2.27,2.83,2.27,5.08s-.76,3.94-2.27,5.08c-1.52,1.14-3.68,1.71-6.49,1.71Z"
    class="cls-1"></path>
  <path
    d="M508.3,55.2c2.84,0,5.21.7,7.12,2.09,1.91,1.39,3.1,3.29,3.58,5.71h3.2c-.53-3-2.05-5.36-4.55-7.06-2.5-1.7-5.69-2.55-9.56-2.55-4.83,0-8.57,1.31-11.21,3.94-2.64,2.63-3.96,6.33-3.96,11.1s1.33,8.66,3.98,11.31,6.41,3.98,11.27,3.98c3.82,0,6.98-.86,9.48-2.57,2.5-1.71,4.02-4.06,4.55-7.04h-3.2c-.48,2.44-1.66,4.35-3.54,5.73-1.88,1.38-4.24,2.06-7.08,2.06-3.85,0-6.81-1.17-8.89-3.5-2.08-2.33-3.12-5.66-3.12-9.99s1.03-7.51,3.1-9.8c2.06-2.29,5.01-3.43,8.83-3.43Z"
    class="cls-1"></path>
  <polygon
    points="558.9 66.58 538.89 66.58 538.89 53.81 535.43 53.81 535.43 83.3 538.89 83.3 538.89 68.35 558.9 68.35 558.9 83.3 562.36 83.3 562.36 53.81 558.9 53.81 558.9 66.58"
    class="cls-1"></polygon>
  <polygon
    points="577.1 83.3 601.33 83.3 601.33 81.49 580.56 81.49 580.56 68.35 598.88 68.35 598.88 66.58 580.56 66.58 580.56 55.62 601.33 55.62 601.33 53.81 577.1 53.81 577.1 83.3"
    class="cls-1"></polygon>
  <polygon points="617.59 53.81 614.13 53.81 614.13 83.3 636.25 83.3 636.25 81.49 617.59 81.49 617.59 53.81"
    class="cls-1"></polygon>
  <path
    d="M672.11,72.01c0,3.31-.81,5.79-2.42,7.44-1.62,1.64-4.14,2.46-7.56,2.46s-6.02-.83-7.63-2.49c-1.6-1.66-2.4-4.13-2.4-7.41v-18.2h-3.45v17.23c0,4.19,1.08,7.35,3.24,9.48,2.16,2.13,5.57,3.2,10.24,3.2s8.03-1.07,10.2-3.22c2.16-2.15,3.24-5.3,3.24-9.46v-17.23h-3.46v18.2Z"
    class="cls-1"></path>
  <polygon
    points="689.42 55.62 708.63 55.62 687.95 82.92 687.95 83.3 712.42 83.3 712.42 81.49 692.54 81.49 713.27 54.15 713.27 53.81 689.42 53.81 689.42 55.62"
    class="cls-1"></polygon>
  <polygon
    points="724.77 55.62 743.98 55.62 723.29 82.92 723.29 83.3 747.77 83.3 747.77 81.49 727.88 81.49 748.61 54.15 748.61 53.81 724.77 53.81 724.77 55.62"
    class="cls-1"></polygon>
  <path
    d="M789.39,60.32c-1.24-2.26-3.01-3.98-5.33-5.16-2.32-1.18-5.09-1.77-8.32-1.77s-6.01.59-8.34,1.77c-2.33,1.18-4.11,2.9-5.35,5.16-1.24,2.26-1.85,4.97-1.85,8.11s.61,5.95,1.83,8.24c1.22,2.29,3,4.04,5.33,5.25,2.33,1.21,5.13,1.81,8.38,1.81s6.01-.6,8.34-1.81c2.33-1.21,4.11-2.96,5.33-5.25,1.22-2.29,1.83-5.03,1.83-8.24s-.62-5.85-1.85-8.11ZM784.63,78.37c-2.11,2.36-5.07,3.54-8.89,3.54s-6.82-1.18-8.93-3.54c-2.11-2.36-3.16-5.67-3.16-9.94s1.05-7.47,3.16-9.77c2.11-2.3,5.08-3.46,8.93-3.46s6.82,1.15,8.91,3.46c2.09,2.3,3.14,5.56,3.14,9.77s-1.05,7.58-3.16,9.94Z"
    class="cls-1"></path>
  <path
    d="M355.16,65.95c-.45-.23-.99-.34-1.62-.34s-1.17.11-1.62.34c-.45.23-.8.56-1.04,1-.24.44-.36.97-.36,1.58s.12,1.16.36,1.6c.24.45.58.79,1.04,1.02.45.23,1,.35,1.63.35s1.17-.12,1.62-.35c.45-.23.8-.57,1.04-1.02.24-.45.36-.98.36-1.6s-.12-1.14-.36-1.58c-.24-.44-.59-.77-1.04-1Z"
    class="cls-1"></path>
</svg>