<svg width="40" height="40" viewBox="0 0 40 40" fill="none" xmlns="http://www.w3.org/2000/svg">
    <path
        d="M28.3335 35.4173H11.6668C5.5835 35.4173 2.0835 31.9173 2.0835 25.834V14.1673C2.0835 8.08398 5.5835 4.58398 11.6668 4.58398H28.3335C34.4168 4.58398 37.9168 8.08398 37.9168 14.1673V25.834C37.9168 31.9173 34.4168 35.4173 28.3335 35.4173ZM11.6668 7.08398C6.90016 7.08398 4.5835 9.40065 4.5835 14.1673V25.834C4.5835 30.6007 6.90016 32.9173 11.6668 32.9173H28.3335C33.1002 32.9173 35.4168 30.6007 35.4168 25.834V14.1673C35.4168 9.40065 33.1002 7.08398 28.3335 7.08398H11.6668Z"
        fill="#292D32" />
    <path
        d="M19.9995 21.4499C18.5995 21.4499 17.1828 21.0166 16.0995 20.1333L10.8828 15.9666C10.3495 15.5333 10.2495 14.7499 10.6828 14.2166C11.1161 13.6833 11.8995 13.5833 12.4328 14.0166L17.6495 18.1833C18.9161 19.2 21.0661 19.2 22.3328 18.1833L27.5495 14.0166C28.0828 13.5833 28.8828 13.6666 29.2995 14.2166C29.7328 14.7499 29.6495 15.55 29.0995 15.9666L23.8828 20.1333C22.8161 21.0166 21.3995 21.4499 19.9995 21.4499Z"
        fill="#292D32" />
</svg>