<svg width="40" height="40" viewBox="0 0 40 40" fill="none" xmlns="http://www.w3.org/2000/svg">
    <path
        d="M19.9998 23.6158C16.4498 23.6158 13.5498 20.7324 13.5498 17.1658C13.5498 13.5991 16.4498 10.7324 19.9998 10.7324C23.5498 10.7324 26.4498 13.6158 26.4498 17.1824C26.4498 20.7491 23.5498 23.6158 19.9998 23.6158ZM19.9998 13.2324C17.8331 13.2324 16.0498 14.9991 16.0498 17.1824C16.0498 19.3658 17.8165 21.1324 19.9998 21.1324C22.1831 21.1324 23.9498 19.3658 23.9498 17.1824C23.9498 14.9991 22.1665 13.2324 19.9998 13.2324Z"
        fill="#292D32" />
    <path
        d="M19.9998 37.934C17.5331 37.934 15.0498 37.0007 13.1165 35.1507C8.1998 30.4173 2.76647 22.8673 4.81647 13.884C6.66647 5.73398 13.7831 2.08398 19.9998 2.08398C19.9998 2.08398 19.9998 2.08398 20.0165 2.08398C26.2331 2.08398 33.3498 5.73398 35.1998 13.9007C37.2331 22.884 31.7998 30.4173 26.8831 35.1507C24.9498 37.0007 22.4665 37.934 19.9998 37.934ZM19.9998 4.58398C15.1498 4.58398 8.91647 7.16732 7.26647 14.434C5.46647 22.284 10.3998 29.0507 14.8665 33.334C17.7498 36.1173 22.2665 36.1173 25.1498 33.334C29.5998 29.0507 34.5331 22.284 32.7665 14.434C31.0998 7.16732 24.8498 4.58398 19.9998 4.58398Z"
        fill="#292D32" />
</svg>