<svg viewBox="0 0 24 24" fill="none" xmlns="http://www.w3.org/2000/svg">
    <path
        d="M18.02 3.00999C18.69 2.64999 19.35 2.33999 19.96 2.09999C20.55 1.87999 21.12 2.03999 21.48 2.40999C21.86 2.78999 22.04 3.35999 21.8 3.94999C20.26 7.78999 16.4 13.01 13.17 15.6L11.2 17.18C10.95 17.36 10.7 17.52 10.42 17.63C10.42 17.45 10.41 17.25 10.38 17.06C10.27 16.22 9.89001 15.44 9.22001 14.77C8.54001 14.09 7.71001 13.69 6.86001 13.58C6.66001 13.57 6.46001 13.55 6.26001 13.57C6.37001 13.26 6.54001 12.97 6.75001 12.73L8.31001 10.76C9.66001 9.06999 11.75 7.19999 13.97 5.57999"
        stroke="#292D32" stroke-width="1.5" stroke-linecap="round" stroke-linejoin="round" />
    <path
        d="M10.43 17.62C10.43 18.72 10.01 19.77 9.22 20.57C8.61 21.18 7.78 21.6 6.79 21.73L4.33 22C2.99 22.15 1.84 21.01 2 19.65L2.27 17.19C2.51 15 4.34 13.6 6.28 13.56C6.48 13.55 6.69 13.56 6.88 13.57C7.73 13.68 8.56 14.07 9.24 14.76C9.91 15.43 10.29 16.21 10.4 17.05C10.41 17.24 10.43 17.43 10.43 17.62Z"
        stroke="#292D32" stroke-width="1.5" stroke-linecap="round" stroke-linejoin="round" />
    <path d="M14.24 14.47C14.24 11.86 12.12 9.73999 9.51001 9.73999" stroke="#292D32" stroke-width="1.5"
        stroke-linecap="round" stroke-linejoin="round" />
</svg>