<svg width="40" height="40" viewBox="0 0 40 40" fill="none" xmlns="http://www.w3.org/2000/svg">
    <path
        d="M29.0835 37.9173C27.2002 37.9173 25.2168 37.4673 23.1668 36.6007C21.1668 35.7507 19.1502 34.584 17.1835 33.1673C15.2335 31.734 13.3502 30.134 11.5668 28.384C9.80016 26.6007 8.20016 24.7173 6.7835 22.784C5.35016 20.784 4.20016 18.784 3.3835 16.8507C2.51683 14.784 2.0835 12.784 2.0835 10.9007C2.0835 9.60065 2.31683 8.36732 2.76683 7.21732C3.2335 6.03398 3.9835 4.93398 5.00016 3.98398C6.2835 2.71732 7.75016 2.08398 9.31683 2.08398C9.96683 2.08398 10.6335 2.23398 11.2002 2.50065C11.8502 2.80065 12.4002 3.25065 12.8002 3.85065L16.6668 9.30065C17.0168 9.78398 17.2835 10.2507 17.4668 10.7173C17.6835 11.2173 17.8002 11.7173 17.8002 12.2007C17.8002 12.834 17.6168 13.4507 17.2668 14.034C17.0168 14.484 16.6335 14.9673 16.1502 15.4507L15.0168 16.634C15.0335 16.684 15.0502 16.7173 15.0668 16.7507C15.2668 17.1007 15.6668 17.7007 16.4335 18.6007C17.2502 19.534 18.0168 20.384 18.7835 21.1673C19.7668 22.134 20.5835 22.9007 21.3502 23.534C22.3002 24.334 22.9168 24.734 23.2835 24.9173L23.2502 25.0007L24.4668 23.8007C24.9835 23.284 25.4835 22.9007 25.9668 22.6507C26.8835 22.084 28.0502 21.984 29.2168 22.4673C29.6502 22.6507 30.1168 22.9007 30.6168 23.2507L36.1502 27.184C36.7668 27.6007 37.2168 28.134 37.4835 28.7673C37.7335 29.4007 37.8502 29.984 37.8502 30.5673C37.8502 31.3673 37.6668 32.1673 37.3168 32.9173C36.9668 33.6673 36.5335 34.3173 35.9835 34.9173C35.0335 35.9673 34.0002 36.7173 32.8002 37.2007C31.6502 37.6673 30.4002 37.9173 29.0835 37.9173ZM9.31683 4.58398C8.40016 4.58398 7.55016 4.98398 6.7335 5.78398C5.96683 6.50065 5.4335 7.28398 5.10016 8.13399C4.75016 9.00065 4.5835 9.91732 4.5835 10.9007C4.5835 12.4507 4.95016 14.134 5.6835 15.8673C6.4335 17.634 7.4835 19.4673 8.81683 21.3007C10.1502 23.134 11.6668 24.9173 13.3335 26.6007C15.0002 28.2507 16.8002 29.784 18.6502 31.134C20.4502 32.4507 22.3002 33.5173 24.1335 34.284C26.9835 35.5007 29.6502 35.784 31.8502 34.8673C32.7002 34.5173 33.4502 33.984 34.1335 33.2173C34.5168 32.8007 34.8168 32.3507 35.0668 31.8173C35.2668 31.4007 35.3668 30.9673 35.3668 30.534C35.3668 30.2673 35.3168 30.0007 35.1835 29.7007C35.1335 29.6007 35.0335 29.4173 34.7168 29.2007L29.1835 25.2673C28.8502 25.034 28.5502 24.8673 28.2668 24.7507C27.9002 24.6007 27.7502 24.4507 27.1835 24.8007C26.8502 24.9673 26.5502 25.2173 26.2168 25.5507L24.9502 26.8007C24.3002 27.434 23.3002 27.584 22.5335 27.3007L22.0835 27.1007C21.4002 26.734 20.6002 26.1673 19.7168 25.4173C18.9168 24.734 18.0502 23.934 17.0002 22.9007C16.1835 22.0673 15.3668 21.184 14.5168 20.2007C13.7335 19.284 13.1668 18.5007 12.8168 17.8507L12.6168 17.3507C12.5168 16.9673 12.4835 16.7507 12.4835 16.5173C12.4835 15.9173 12.7002 15.384 13.1168 14.9673L14.3668 13.6673C14.7002 13.334 14.9502 13.0173 15.1168 12.734C15.2502 12.5173 15.3002 12.334 15.3002 12.1673C15.3002 12.034 15.2502 11.834 15.1668 11.634C15.0502 11.3673 14.8668 11.0673 14.6335 10.7507L10.7668 5.28398C10.6002 5.05065 10.4002 4.88398 10.1502 4.76732C9.8835 4.65065 9.60016 4.58398 9.31683 4.58398ZM23.2502 25.0173L22.9835 26.1507L23.4335 24.984C23.3502 24.9673 23.2835 24.984 23.2502 25.0173Z"
        fill="#292D32" />
</svg>