<svg width="32" height="32" viewBox="0 0 32 32" fill="none" xmlns="http://www.w3.org/2000/svg">
    <path fill-rule="evenodd" clip-rule="evenodd"
        d="M19.718 11.6771C20.2484 12.2397 20.8963 12.6842 21.5939 13.0131C22.2025 13.2998 22.8517 13.5005 23.5133 13.6189L24.0685 13.7181L24.6888 10.5743L24.1115 10.4728C23.2932 10.3296 22.5532 9.97146 21.8993 9.46462C21.0535 8.80934 20.3717 7.92114 19.8659 6.98428L19.7033 6.68274H16.4561V19.1209C16.4561 19.8976 16.148 20.6406 15.5944 21.1944C15.0405 21.7484 14.2973 22.0563 13.5139 22.0563C12.7306 22.0563 11.9873 21.7484 11.4333 21.1944C10.8797 20.6406 10.5719 19.8974 10.5719 19.1141C10.5719 18.3306 10.8795 17.5877 11.4333 17.0336C11.9873 16.4797 12.7306 16.1719 13.5139 16.1719H14.665V12.9111H13.5139C11.8637 12.9111 10.2945 13.5609 9.12779 14.7277C7.96105 15.8944 7.31102 17.4639 7.31102 19.1141C7.31102 20.7642 7.96105 22.3337 9.12779 23.5004C10.2945 24.667 11.8637 25.3173 13.5139 25.3173C15.1641 25.3173 16.7333 24.667 17.9001 23.5004C19.0668 22.3337 19.7169 20.7642 19.7169 19.1141V12.1924H19.7177L19.718 11.6771ZM5.38552 -0.000217438H26.6142C29.5762 -0.000217438 32 2.42327 32 5.38557V26.6142C32 29.5765 29.5762 32 26.6142 32H5.38552C2.42348 32 0 29.5765 0 26.6142V5.38557C0 2.42327 2.42348 -0.000217438 5.38552 -0.000217438Z"
        fill="#000000" />
</svg>